<svg style="display: none;" version="1.1" xmlns="http://www.w3.org/2000/svg" xmlns:xlink="http://www.w3.org/1999/xlink">
	<symbol id="friday-logo" viewBox="0 0 160 40">
		<g>
			<path fill="#ffffff" d="M40,0.9C39.4,0.3,38.6,0,37.7,0c-0.8,0-1.6,0.3-2.2,0.9c-0.6,0.6-0.9,1.4-0.9,2.2c0,0.8,0.3,1.6,0.9,2.2c0.6,0.6,1.4,0.9,2.2,0.9c0.8,0,1.6-0.3,2.2-0.9c0.6-0.6,0.9-1.4,0.9-2.2C40.9,2.3,40.6,1.5,40,0.9z"/>
			<path fill="#ffffff" d="M40.5,29l0-19.9H35V29c0,0.7,0.3,1.3,0.8,1.8c0.5,0.5,1.2,0.7,2,0.7c0.8,0,1.4-0.3,2-0.7C40.2,30.3,40.5,29.7,40.5,29z"/>
			<path fill="#39b5e4" d="M68.3,11.2l-0.9-2.8c-0.4-1.2-1.1-1.8-2.1-1.8c-0.4,0-0.8,0.1-1.2,0.2l-24.2,8.4c-0.9,0.3-1.4,0.7-1.7,1.3c-0.2,0.5-0.2,1.2,0.1,2l1,2.7c2.2,5.6,5.9,8.1,8.6,9.2c1.8,0.7,3.9,1.1,5.9,1.1l0,0c1.7,0,3.4-0.3,4.9-0.8C66.7,28,70.9,19.4,68.3,11.2z M53.8,26.3c-1.3,0-2.6-0.2-3.7-0.7c-1.8-0.7-4.3-2.3-5.6-6l-0.1-0.3L63,12.8l0.1,0.3c0.3,0.7,0.8,3.3,0.1,6c-0.8,3.2-2.9,5.4-6.2,6.6C56,26.1,54.9,26.3,53.8,26.3z"/>
			<path fill="#ffffff" d="M16.1,4.4c0.4-0.6,0.6-1.3,0.4-2.2c-0.2-1-1.1-2.2-2.8-2.2C7.6,0.1,4.2,3.2,4,9.2l0,0.7L3.1,9.9C2.5,10,2,10.2,1.6,10.7c-0.5,0.5-0.8,1.2-0.8,2c0,0.8,0.3,1.4,0.8,2c0.4,0.5,1,0.7,1.6,0.8L4,15.5v15.8h5.5V15.5h3.9c0.7,0,1.3-0.3,1.7-0.8c0.5-0.5,0.7-1.2,0.7-2c0-0.8-0.3-1.4-0.7-2c-0.5-0.5-1.1-0.8-1.7-0.8h-4V9.1c0-2.1,0.6-3.3,3.9-3.5C14.6,5.6,15.6,5.1,16.1,4.4z"/>
			<path fill="#ffffff" d="M107.4,9.1c-0.4-0.2-0.9-0.3-1.3-0.3c-0.8,0-1.8,0.3-2.2,1.5l-4.6,10.8l-4.5-10.8C94.4,9,93,8.8,92.5,8.8c-0.4,0-0.8,0.1-1.2,0.2c-0.5,0.2-1.3,0.8-1.6,1.7c-0.2,0.6-0.2,1.2,0,1.8l6.5,15.9L91.4,40l6,0L109,12.6c0.2-0.6,0.2-1.3,0-1.9C108.8,10.2,108.4,9.5,107.4,9.1z"/>
			<path fill="#ffffff" d="M78.4,8.9c-3.1,0-5.7,1.1-7.9,3.3c-2.2,2.2-3.3,4.8-3.3,7.9c0,3.1,1.1,5.7,3.3,7.9c2.2,2.2,4.8,3.3,7.9,3.3c2.7,0,4.4-0.9,5.1-1.4l0.4-0.3l0.1,1.8h5.5V20c0-3.1-1.1-5.7-3.3-7.9C84.1,10,81.4,8.9,78.4,8.9z M83.5,22.2c-0.3,0.7-0.7,1.3-1.2,1.8c-0.5,0.5-1.1,0.9-1.8,1.2c-0.7,0.3-1.4,0.4-2.2,0.4c-0.8,0-1.5-0.1-2.2-0.4c-0.7-0.3-1.3-0.7-1.8-1.2c-0.5-0.5-0.9-1.1-1.2-1.8c-0.3-0.7-0.4-1.4-0.4-2.2c0-0.8,0.1-1.5,0.4-2.2c0.3-0.7,0.7-1.3,1.2-1.8c0.5-0.5,1.1-0.9,1.8-1.2c0.7-0.3,1.4-0.4,2.2-0.4c0.8,0,1.5,0.1,2.2,0.4c0.7,0.3,1.3,0.7,1.8,1.2c0.5,0.5,0.9,1.1,1.2,1.8c0.3,0.7,0.4,1.4,0.4,2.1C84,20.8,83.8,21.5,83.5,22.2z"/>
			<path fill="#ffffff" d="M33.3,11.3C33.1,9.8,31.9,9,30,9l-0.5,0c-3.3,0-5.5,2-5.6,2l-0.5,0.4l0-2.3H18l0,19.9c0,0.7,0.3,1.3,0.8,1.7c0.5,0.5,1.2,0.7,2,0.7c0.8,0,1.4-0.3,2-0.7c0.5-0.5,0.8-1.1,0.8-1.7v-8.9c0-3.3,3.6-5.2,5.3-5.5c0.3-0.1,0.6-0.1,1-0.1c0.3,0,0.6,0,0.9-0.1C31.9,14.4,33.6,13.3,33.3,11.3z"/>
		</g>
		<g>
			<path fill="#39b5e4" d="M119.7,27.5c-1,1.5-2.2,2.6-3.4,3.3c-0.3-0.6-0.6-1.1-0.9-1.5c1.1-0.7,2-1.7,2.8-2.9L119.7,27.5z M121,18h-4c-0.2,0-0.2-0.1-0.2-0.2v-6c0-0.2,0.1-0.2,0.2-0.2h9.9c0.2,0,0.3,0.1,0.3,0.2v6c0,0.2-0.1,0.2-0.3,0.2h-4.1v1h5.5v1.7h-12.8v-1.7h5.5V18z M116.8,26c-0.2,0-0.2-0.1-0.2-0.2V22c0-0.2,0.1-0.2,0.2-0.2h10.1c0.2,0,0.2,0.1,0.2,0.2v3.8c0,0.2-0.1,0.2-0.2,0.2h-4v3.5c0,0.5-0.1,1-0.4,1.3c-0.2,0.3-0.5,0.5-0.8,0.6c-0.6,0.3-1.6,0.1-2.8-0.3l-0.1-1.9c1.1,0.3,1.7,0.5,1.8,0.4c0.2-0.2,0.4-0.3,0.4-0.5V26H116.8z M118.4,23.2C118.3,23.2,118.3,23.2,118.4,23.2l0,1.3l0,0.1h6.9l0.1-0.1v-1.2l-0.1-0.1H118.4z M125.3,14.1v-1l-0.1-0.1h-6.7c-0.1,0-0.1,0-0.1,0.1v1H125.3z M118.5,15.4v1l0.1,0.1h6.7l0.1-0.1v-1H118.5z M125.5,26.4c0.6,0.8,1.1,1.8,1.7,3l-1.6,0.8c-0.6-1.3-1.1-2.2-1.7-2.9L125.5,26.4z M135.7,24.4c-0.5,1.1-1.1,2-1.7,2.8c-1.2,1.6-3.3,3.1-6.1,4.3l-1.1-1.6c1.9-0.8,3.5-1.7,4.8-2.7c0.7-0.8,1.6-2,2.5-3.6L135.7,24.4z M135.7,18c-1.9,2.7-4.2,4.8-7.1,6.1l-1.1-1.7l0.5-0.2c2.4-1,4.4-2.8,6.1-5.3L135.7,18z M135.2,12.6c-1.9,2.1-4.1,3.6-6.7,4.4l-0.8-1.7l0.8-0.2c1.9-0.7,3.7-1.9,5.3-3.7L135.2,12.6z"/>
			<path fill="#39b5e4" d="M159.2,19v1.8h-19.8V19h5.7l-0.9-2.4h-3.8v-1.8h17.7v1.8h-4l-0.8,2.4H159.2z M156.2,30.9h-14c-0.2,0-0.2-0.1-0.2-0.3v-8.6c0-0.2,0.1-0.3,0.2-0.3h14c0.2,0,0.3,0.1,0.3,0.3v8.6C156.5,30.8,156.4,30.9,156.2,30.9z M155.8,11.9v1.8h-12.9v-1.8H155.8z M154.7,25.5v-1.8c0-0.1,0-0.1-0.1-0.1h-10.7c-0.1,0-0.1,0-0.1,0.1v1.8H154.7z M143.8,27.2v1.9c0,0.1,0,0.1,0.1,0.1h10.7l0.1-0.1v-1.9H143.8z M152.2,16.6h-5.9l0.9,2.4h4.3L152.2,16.6z"/>
		</g>
	</symbol>
	<symbol id="turn" viewBox="0 0 115 161">
		<g>
			<g opacity="0.6">
				<path d="M90.8,67.7h10v24.9c-1.2-5.8-3-12-5.2-18.7l-6.2,1.7V54H64.6v13.8H76v24.1c-1.2-5.6-2.8-11.6-4.7-17.9l-7.5,2.1c-6.9-3.6-12.8-6.2-17.6-7.8l-5.7,7.1c3,1.5,6.3,3.2,10,5.2H18.5c2.9-3.7,5.5-7.5,7.7-11.7v9.9h12.3V66.3h21.9V54.4h-7.2c1.2-2.8,2.6-6.2,3.9-10.3l-10.5-2.4c-1.6,4.9-3.3,9.1-5.2,12.8h-2.9V39.7c8-0.9,15.1-2.1,21.4-3.8l-5.2-11.4c-13.4,2.7-30.5,3.9-51.4,3.9l3.9,12.8c6.7,0,13-0.1,19-0.5v13.8h-3c-1.5-4.1-3.2-7.9-5.1-11.3l-10,1.8c1.7,3.2,3.3,6.3,4.6,9.5H2v11.9h13.6C12.4,71.4,7.6,76,1,80.1l4.3,13.4c0.6-0.5,1.2-1,1.9-1.6v43.8H19v-5.2h27.1v5.2h11.9V85.5c0.5,0.4,1.1,0.7,1.8,1.2l4-7.6c2,8.1,3.4,15.7,4,22.8L76,100v7.2c-4.6,6.9-9.2,11.8-13.9,14.7l7.2,13.9c2.2-2.8,4.4-6.2,6.7-10.2v17.8c0,2.3-1,3.4-2.9,3.4c-0.5,0-2.6-0.1-6.2-0.5l2.4,14.7h8c7.9,0,11.9-4.1,11.9-12.4v-21.2l4.3,8.4c2.2-2.9,4.6-6.3,7.2-10.5v18c0,2.3-1,3.4-2.9,3.4c-0.5,0-2.2-0.1-5.2-0.5l2.4,14.7h7.1c7.9,0,11.9-4.1,11.9-12.4V54H90.8V67.7z M27.2,118.2H19v-7.7h8.2V118.2z M27.2,100H19V93h8.2V100z M46.1,118.2h-8.5v-7.7h8.5V118.2z M46.1,100h-8.5V93h8.5V100z M100.7,107.3c-3.9,5.5-7.7,9.7-11.4,12.7V83.4c1.6,6.7,2.7,13,3.3,19l8.2-1.9V107.3z M55.2,4.5C78,4.5,97.3,19.4,104,39.9h-6l8.5,9.7l8.5-9.7h-7.3C100.9,17.4,80,1,55.2,1C37.6,1,21.9,9.3,11.9,22.3l4.6,0C25.9,11.4,39.8,4.5,55.2,4.5z"/>
			</g>
			<g>
				<path fill="#FFFFFF" d="M89.8,66.7h10v24.9c-1.2-5.8-3-12-5.2-18.7l-6.2,1.7V53H63.6v13.8H75v24.1c-1.2-5.6-2.8-11.6-4.7-17.9l-7.5,2.1c-6.9-3.6-12.8-6.2-17.6-7.8l-5.7,7.1c3,1.5,6.3,3.2,10,5.2H17.5c2.9-3.7,5.5-7.5,7.7-11.7v9.9h12.3V65.3h21.9V53.4h-7.2c1.2-2.8,2.6-6.2,3.9-10.3l-10.5-2.4c-1.6,4.9-3.3,9.1-5.2,12.8h-2.9V38.7c8-0.9,15.1-2.1,21.4-3.8l-5.2-11.4c-13.4,2.7-30.5,3.9-51.4,3.9l3.9,12.8c6.7,0,13-0.1,19-0.5v13.8h-3c-1.5-4.1-3.2-7.9-5.1-11.3l-10,1.8c1.7,3.2,3.3,6.3,4.6,9.5H1v11.9h13.6C11.4,70.4,6.6,75,0,79.1l4.3,13.4c0.6-0.5,1.2-1,1.9-1.6v43.8H18v-5.2h27.1v5.2h11.9V84.5c0.5,0.4,1.1,0.7,1.8,1.2l4-7.6c2,8.1,3.4,15.7,4,22.8L75,99v7.2c-4.6,6.9-9.2,11.8-13.9,14.7l7.2,13.9c2.2-2.8,4.4-6.2,6.7-10.2v17.8c0,2.3-1,3.4-2.9,3.4c-0.5,0-2.6-0.1-6.2-0.5l2.4,14.7h8c7.9,0,11.9-4.1,11.9-12.4v-21.2l4.3,8.4c2.2-2.9,4.6-6.3,7.2-10.5v18c0,2.3-1,3.4-2.9,3.4c-0.5,0-2.2-0.1-5.2-0.5l2.4,14.7h7.1c7.9,0,11.9-4.1,11.9-12.4V53H89.8V66.7z M26.2,117.2H18v-7.7h8.2V117.2z M26.2,99H18V92h8.2V99z M45.1,117.2h-8.5v-7.7h8.5V117.2z M45.1,99h-8.5V92h8.5V99z M99.7,106.3c-3.9,5.5-7.7,9.7-11.4,12.7V82.4c1.6,6.7,2.7,13,3.3,19l8.2-1.9V106.3z M54.2,3.5C77,3.5,96.3,18.4,103,38.9h-6l8.5,9.7l8.5-9.7h-7.3C99.9,16.4,79,0,54.2,0C36.6,0,20.9,8.3,10.9,21.3l4.6,0C24.9,10.4,38.8,3.5,54.2,3.5z"/>
			</g>
		</g>
	</symbol>
	<symbol id="rotate" viewBox="0 0 115 151">
		<g>
			<g opacity="0.6">
				<path d="M100.6,75.2H86.3V80H49.8v11h12.6l-9.3,6.3c4.2,4.4,7.5,8.5,9.7,12.4l10.6-8.1c-2.9-3.8-6.3-7.4-9.7-10.6h22.6v7.6c0,1.7-1,2.5-2.8,2.5c-0.7,0-3.7-0.1-8.7-0.5l2,12.5h13.9c6.6,0,10.1-3.6,10.1-10.6V91.1h13.9V80h-13.9V75.2z M64.9,64.2c-2,0-6.6-0.1-14.1-0.5l1.5,11.5c16.2-0.1,32.9-0.7,50.1-1.8c0.9,1.6,1.7,3.3,2.6,5.2l10.1-6.6c-2.8-4.7-6.1-9.1-9.8-13h6V22.5H88.7v-4.8h24.4V5.8H88.7V1H75.2v4.8H50.8v11.9h24.4v4.8H53.2v36.4h22.1v5.3H64.9z M88.7,32h10.4v5.3H88.7V32z M88.7,44.1h10.4v5.3H88.7V44.1z M88.7,58.9h4c1.2,1.7,2.6,3.4,3.9,5.3h-8V58.9z M65.2,32h10.1v5.3H65.2V32z M65.2,49.3v-5.3h10.1v5.3H65.2z M19.2,127.9H33v-15.3h15.3v-11.4H33v-6.3h14.8V40.8H33V35h14.8V23H33v-8.1H19.2V23H1v12h18.2v5.8H4.3v54.1h14.8v6.3H1v11.4h18.2V127.9z M31.2,52.2H36v10.1h-4.8V52.2z M31.2,72.3H36v11h-4.8V72.3z M16.3,52.2h4.8v10.1h-4.8V52.2z M16.3,83.4v-11h4.8v11H16.3z M56.9,147.4c-10.5,0-20.3-3.2-28.4-8.6l5.1-6l-14.7,0.1l2.2,14.6l5.2-6.1c8.8,5.9,19.3,9.4,30.7,9.4c29,0,52.8-22.2,55-50.7l-3.5-0.2C106.4,126.5,84.1,147.4,56.9,147.4z"/>
			</g>
			<g>
				<path fill="#FFFFFF" d="M99.6,74.2H85.3V79H48.8v11h12.6l-9.3,6.3c4.2,4.4,7.5,8.5,9.7,12.4l10.6-8.1c-2.9-3.8-6.3-7.4-9.7-10.6h22.6v7.6c0,1.7-1,2.5-2.8,2.5c-0.7,0-3.7-0.1-8.7-0.5l2,12.5h13.9c6.6,0,10.1-3.6,10.1-10.6V90.1h13.9V79H99.6V74.2z M63.9,63.2c-2,0-6.6-0.1-14.1-0.5l1.5,11.5c16.2-0.1,32.9-0.7,50.1-1.8c0.9,1.6,1.7,3.3,2.6,5.2l10.1-6.6c-2.8-4.7-6.1-9.1-9.8-13h6V21.5H87.7v-4.8h24.4V4.8H87.7V0H74.2v4.8H49.8v11.9h24.4v4.8H52.2v36.4h22.1v5.3H63.9z M87.7,31h10.4v5.3H87.7V31z M87.7,43.1h10.4v5.3H87.7V43.1z M87.7,57.9h4c1.2,1.7,2.6,3.4,3.9,5.3h-8V57.9z M64.2,31h10.1v5.3H64.2V31z M64.2,48.3v-5.3h10.1v5.3H64.2z M18.2,126.9H32v-15.3h15.3v-11.4H32v-6.3h14.8V39.8H32V34h14.8V22H32v-8.1H18.2V22H0v12h18.2v5.8H3.3v54.1h14.8v6.3H0v11.4h18.2V126.9z M30.2,51.2H35v10.1h-4.8V51.2z M30.2,71.3H35v11h-4.8V71.3z M15.3,51.2h4.8v10.1h-4.8V51.2z M15.3,82.4v-11h4.8v11H15.3z M55.9,146.4c-10.5,0-20.3-3.2-28.4-8.6l5.1-6l-14.7,0.1l2.2,14.6l5.2-6.1c8.8,5.9,19.3,9.4,30.7,9.4c29,0,52.8-22.2,55-50.7l-3.5-0.2C105.4,125.5,83.1,146.4,55.9,146.4z"/>
			</g>
		</g>
	</symbol>
</svg> 