<svg style="display: none;" version="1.1" xmlns="http://www.w3.org/2000/svg" xmlns:xlink="http://www.w3.org/1999/xlink">
	<symbol id="friday-logo" viewBox="0 0 160 40">
		<path fill="#ffffff" d="M40,0.9C39.4,0.3,38.6,0,37.7,0c-0.8,0-1.6,0.3-2.2,0.9c-0.6,0.6-0.9,1.4-0.9,2.2c0,0.8,0.3,1.6,0.9,2.2c0.6,0.6,1.4,0.9,2.2,0.9c0.8,0,1.6-0.3,2.2-0.9c0.6-0.6,0.9-1.4,0.9-2.2C40.9,2.3,40.6,1.5,40,0.9z"/>
		<path fill="#ffffff" d="M40.5,29l0-19.9H35V29c0,0.7,0.3,1.3,0.8,1.8c0.5,0.5,1.2,0.7,2,0.7c0.8,0,1.4-0.3,2-0.7C40.2,30.3,40.5,29.7,40.5,29z"/>
		<path fill="#39b5e4" d="M68.3,11.2l-0.9-2.8c-0.4-1.2-1.1-1.8-2.1-1.8c-0.4,0-0.8,0.1-1.2,0.2l-24.2,8.4c-0.9,0.3-1.4,0.7-1.7,1.3c-0.2,0.5-0.2,1.2,0.1,2l1,2.7c2.2,5.6,5.9,8.1,8.6,9.2c1.8,0.7,3.9,1.1,5.9,1.1l0,0c1.7,0,3.4-0.3,4.9-0.8C66.7,28,70.9,19.4,68.3,11.2z M53.8,26.3c-1.3,0-2.6-0.2-3.7-0.7c-1.8-0.7-4.3-2.3-5.6-6l-0.1-0.3L63,12.8l0.1,0.3c0.3,0.7,0.8,3.3,0.1,6c-0.8,3.2-2.9,5.4-6.2,6.6C56,26.1,54.9,26.3,53.8,26.3z"/>
		<path fill="#ffffff" d="M16.1,4.4c0.4-0.6,0.6-1.3,0.4-2.2c-0.2-1-1.1-2.2-2.8-2.2C7.6,0.1,4.2,3.2,4,9.2l0,0.7L3.1,9.9C2.5,10,2,10.2,1.6,10.7c-0.5,0.5-0.8,1.2-0.8,2c0,0.8,0.3,1.4,0.8,2c0.4,0.5,1,0.7,1.6,0.8L4,15.5v15.8h5.5V15.5h3.9c0.7,0,1.3-0.3,1.7-0.8c0.5-0.5,0.7-1.2,0.7-2c0-0.8-0.3-1.4-0.7-2c-0.5-0.5-1.1-0.8-1.7-0.8h-4V9.1c0-2.1,0.6-3.3,3.9-3.5C14.6,5.6,15.6,5.1,16.1,4.4z"/>
		<path fill="#ffffff" d="M107.4,9.1c-0.4-0.2-0.9-0.3-1.3-0.3c-0.8,0-1.8,0.3-2.2,1.5l-4.6,10.8l-4.5-10.8C94.4,9,93,8.8,92.5,8.8c-0.4,0-0.8,0.1-1.2,0.2c-0.5,0.2-1.3,0.8-1.6,1.7c-0.2,0.6-0.2,1.2,0,1.8l6.5,15.9L91.4,40l6,0L109,12.6c0.2-0.6,0.2-1.3,0-1.9C108.8,10.2,108.4,9.5,107.4,9.1z"/>
		<path fill="#ffffff" d="M78.4,8.9c-3.1,0-5.7,1.1-7.9,3.3c-2.2,2.2-3.3,4.8-3.3,7.9c0,3.1,1.1,5.7,3.3,7.9c2.2,2.2,4.8,3.3,7.9,3.3c2.7,0,4.4-0.9,5.1-1.4l0.4-0.3l0.1,1.8h5.5V20c0-3.1-1.1-5.7-3.3-7.9C84.1,10,81.4,8.9,78.4,8.9z M83.5,22.2c-0.3,0.7-0.7,1.3-1.2,1.8c-0.5,0.5-1.1,0.9-1.8,1.2c-0.7,0.3-1.4,0.4-2.2,0.4c-0.8,0-1.5-0.1-2.2-0.4c-0.7-0.3-1.3-0.7-1.8-1.2c-0.5-0.5-0.9-1.1-1.2-1.8c-0.3-0.7-0.4-1.4-0.4-2.2c0-0.8,0.1-1.5,0.4-2.2c0.3-0.7,0.7-1.3,1.2-1.8c0.5-0.5,1.1-0.9,1.8-1.2c0.7-0.3,1.4-0.4,2.2-0.4c0.8,0,1.5,0.1,2.2,0.4c0.7,0.3,1.3,0.7,1.8,1.2c0.5,0.5,0.9,1.1,1.2,1.8c0.3,0.7,0.4,1.4,0.4,2.1C84,20.8,83.8,21.5,83.5,22.2z"/>
		<path fill="#ffffff" d="M33.3,11.3C33.1,9.8,31.9,9,30,9l-0.5,0c-3.3,0-5.5,2-5.6,2l-0.5,0.4l0-2.3H18l0,19.9c0,0.7,0.3,1.3,0.8,1.7c0.5,0.5,1.2,0.7,2,0.7c0.8,0,1.4-0.3,2-0.7c0.5-0.5,0.8-1.1,0.8-1.7v-8.9c0-3.3,3.6-5.2,5.3-5.5c0.3-0.1,0.6-0.1,1-0.1c0.3,0,0.6,0,0.9-0.1C31.9,14.4,33.6,13.3,33.3,11.3z"/>
		<path fill="#39b5e4" d="M119.7,27.5c-1,1.5-2.2,2.6-3.4,3.3c-0.3-0.6-0.6-1.1-0.9-1.5c1.1-0.7,2-1.7,2.8-2.9L119.7,27.5z M121,18h-4c-0.2,0-0.2-0.1-0.2-0.2v-6c0-0.2,0.1-0.2,0.2-0.2h9.9c0.2,0,0.3,0.1,0.3,0.2v6c0,0.2-0.1,0.2-0.3,0.2h-4.1v1h5.5v1.7h-12.8v-1.7h5.5V18z M116.8,26c-0.2,0-0.2-0.1-0.2-0.2V22c0-0.2,0.1-0.2,0.2-0.2h10.1c0.2,0,0.2,0.1,0.2,0.2v3.8c0,0.2-0.1,0.2-0.2,0.2h-4v3.5c0,0.5-0.1,1-0.4,1.3c-0.2,0.3-0.5,0.5-0.8,0.6c-0.6,0.3-1.6,0.1-2.8-0.3l-0.1-1.9c1.1,0.3,1.7,0.5,1.8,0.4c0.2-0.2,0.4-0.3,0.4-0.5V26H116.8z M118.4,23.2C118.3,23.2,118.3,23.2,118.4,23.2l0,1.3l0,0.1h6.9l0.1-0.1v-1.2l-0.1-0.1H118.4z M125.3,14.1v-1l-0.1-0.1h-6.7c-0.1,0-0.1,0-0.1,0.1v1H125.3z M118.5,15.4v1l0.1,0.1h6.7l0.1-0.1v-1H118.5z M125.5,26.4c0.6,0.8,1.1,1.8,1.7,3l-1.6,0.8c-0.6-1.3-1.1-2.2-1.7-2.9L125.5,26.4z M135.7,24.4c-0.5,1.1-1.1,2-1.7,2.8c-1.2,1.6-3.3,3.1-6.1,4.3l-1.1-1.6c1.9-0.8,3.5-1.7,4.8-2.7c0.7-0.8,1.6-2,2.5-3.6L135.7,24.4z M135.7,18c-1.9,2.7-4.2,4.8-7.1,6.1l-1.1-1.7l0.5-0.2c2.4-1,4.4-2.8,6.1-5.3L135.7,18z M135.2,12.6c-1.9,2.1-4.1,3.6-6.7,4.4l-0.8-1.7l0.8-0.2c1.9-0.7,3.7-1.9,5.3-3.7L135.2,12.6z"/>
		<path fill="#39b5e4" d="M159.2,19v1.8h-19.8V19h5.7l-0.9-2.4h-3.8v-1.8h17.7v1.8h-4l-0.8,2.4H159.2z M156.2,30.9h-14c-0.2,0-0.2-0.1-0.2-0.3v-8.6c0-0.2,0.1-0.3,0.2-0.3h14c0.2,0,0.3,0.1,0.3,0.3v8.6C156.5,30.8,156.4,30.9,156.2,30.9z M155.8,11.9v1.8h-12.9v-1.8H155.8z M154.7,25.5v-1.8c0-0.1,0-0.1-0.1-0.1h-10.7c-0.1,0-0.1,0-0.1,0.1v1.8H154.7z M143.8,27.2v1.9c0,0.1,0,0.1,0.1,0.1h10.7l0.1-0.1v-1.9H143.8z M152.2,16.6h-5.9l0.9,2.4h4.3L152.2,16.6z"/>
	</symbol>
	<symbol id="turn" viewBox="0 0 115 161">
		<g opacity="0.6">
			<path d="M90.8,67.7h10v24.9c-1.2-5.8-3-12-5.2-18.7l-6.2,1.7V54H64.6v13.8H76v24.1c-1.2-5.6-2.8-11.6-4.7-17.9l-7.5,2.1c-6.9-3.6-12.8-6.2-17.6-7.8l-5.7,7.1c3,1.5,6.3,3.2,10,5.2H18.5c2.9-3.7,5.5-7.5,7.7-11.7v9.9h12.3V66.3h21.9V54.4h-7.2c1.2-2.8,2.6-6.2,3.9-10.3l-10.5-2.4c-1.6,4.9-3.3,9.1-5.2,12.8h-2.9V39.7c8-0.9,15.1-2.1,21.4-3.8l-5.2-11.4c-13.4,2.7-30.5,3.9-51.4,3.9l3.9,12.8c6.7,0,13-0.1,19-0.5v13.8h-3c-1.5-4.1-3.2-7.9-5.1-11.3l-10,1.8c1.7,3.2,3.3,6.3,4.6,9.5H2v11.9h13.6C12.4,71.4,7.6,76,1,80.1l4.3,13.4c0.6-0.5,1.2-1,1.9-1.6v43.8H19v-5.2h27.1v5.2h11.9V85.5c0.5,0.4,1.1,0.7,1.8,1.2l4-7.6c2,8.1,3.4,15.7,4,22.8L76,100v7.2c-4.6,6.9-9.2,11.8-13.9,14.7l7.2,13.9c2.2-2.8,4.4-6.2,6.7-10.2v17.8c0,2.3-1,3.4-2.9,3.4c-0.5,0-2.6-0.1-6.2-0.5l2.4,14.7h8c7.9,0,11.9-4.1,11.9-12.4v-21.2l4.3,8.4c2.2-2.9,4.6-6.3,7.2-10.5v18c0,2.3-1,3.4-2.9,3.4c-0.5,0-2.2-0.1-5.2-0.5l2.4,14.7h7.1c7.9,0,11.9-4.1,11.9-12.4V54H90.8V67.7z M27.2,118.2H19v-7.7h8.2V118.2z M27.2,100H19V93h8.2V100z M46.1,118.2h-8.5v-7.7h8.5V118.2z M46.1,100h-8.5V93h8.5V100z M100.7,107.3c-3.9,5.5-7.7,9.7-11.4,12.7V83.4c1.6,6.7,2.7,13,3.3,19l8.2-1.9V107.3z M55.2,4.5C78,4.5,97.3,19.4,104,39.9h-6l8.5,9.7l8.5-9.7h-7.3C100.9,17.4,80,1,55.2,1C37.6,1,21.9,9.3,11.9,22.3l4.6,0C25.9,11.4,39.8,4.5,55.2,4.5z"/>
		</g>
		<path fill="#FFFFFF" d="M89.8,66.7h10v24.9c-1.2-5.8-3-12-5.2-18.7l-6.2,1.7V53H63.6v13.8H75v24.1c-1.2-5.6-2.8-11.6-4.7-17.9l-7.5,2.1c-6.9-3.6-12.8-6.2-17.6-7.8l-5.7,7.1c3,1.5,6.3,3.2,10,5.2H17.5c2.9-3.7,5.5-7.5,7.7-11.7v9.9h12.3V65.3h21.9V53.4h-7.2c1.2-2.8,2.6-6.2,3.9-10.3l-10.5-2.4c-1.6,4.9-3.3,9.1-5.2,12.8h-2.9V38.7c8-0.9,15.1-2.1,21.4-3.8l-5.2-11.4c-13.4,2.7-30.5,3.9-51.4,3.9l3.9,12.8c6.7,0,13-0.1,19-0.5v13.8h-3c-1.5-4.1-3.2-7.9-5.1-11.3l-10,1.8c1.7,3.2,3.3,6.3,4.6,9.5H1v11.9h13.6C11.4,70.4,6.6,75,0,79.1l4.3,13.4c0.6-0.5,1.2-1,1.9-1.6v43.8H18v-5.2h27.1v5.2h11.9V84.5c0.5,0.4,1.1,0.7,1.8,1.2l4-7.6c2,8.1,3.4,15.7,4,22.8L75,99v7.2c-4.6,6.9-9.2,11.8-13.9,14.7l7.2,13.9c2.2-2.8,4.4-6.2,6.7-10.2v17.8c0,2.3-1,3.4-2.9,3.4c-0.5,0-2.6-0.1-6.2-0.5l2.4,14.7h8c7.9,0,11.9-4.1,11.9-12.4v-21.2l4.3,8.4c2.2-2.9,4.6-6.3,7.2-10.5v18c0,2.3-1,3.4-2.9,3.4c-0.5,0-2.2-0.1-5.2-0.5l2.4,14.7h7.1c7.9,0,11.9-4.1,11.9-12.4V53H89.8V66.7z M26.2,117.2H18v-7.7h8.2V117.2z M26.2,99H18V92h8.2V99z M45.1,117.2h-8.5v-7.7h8.5V117.2z M45.1,99h-8.5V92h8.5V99z M99.7,106.3c-3.9,5.5-7.7,9.7-11.4,12.7V82.4c1.6,6.7,2.7,13,3.3,19l8.2-1.9V106.3z M54.2,3.5C77,3.5,96.3,18.4,103,38.9h-6l8.5,9.7l8.5-9.7h-7.3C99.9,16.4,79,0,54.2,0C36.6,0,20.9,8.3,10.9,21.3l4.6,0C24.9,10.4,38.8,3.5,54.2,3.5z"/>
	</symbol>
	<symbol id="rotate" viewBox="0 0 115 151">
		<g opacity="0.6">
			<path d="M100.6,75.2H86.3V80H49.8v11h12.6l-9.3,6.3c4.2,4.4,7.5,8.5,9.7,12.4l10.6-8.1c-2.9-3.8-6.3-7.4-9.7-10.6h22.6v7.6c0,1.7-1,2.5-2.8,2.5c-0.7,0-3.7-0.1-8.7-0.5l2,12.5h13.9c6.6,0,10.1-3.6,10.1-10.6V91.1h13.9V80h-13.9V75.2z M64.9,64.2c-2,0-6.6-0.1-14.1-0.5l1.5,11.5c16.2-0.1,32.9-0.7,50.1-1.8c0.9,1.6,1.7,3.3,2.6,5.2l10.1-6.6c-2.8-4.7-6.1-9.1-9.8-13h6V22.5H88.7v-4.8h24.4V5.8H88.7V1H75.2v4.8H50.8v11.9h24.4v4.8H53.2v36.4h22.1v5.3H64.9z M88.7,32h10.4v5.3H88.7V32z M88.7,44.1h10.4v5.3H88.7V44.1z M88.7,58.9h4c1.2,1.7,2.6,3.4,3.9,5.3h-8V58.9z M65.2,32h10.1v5.3H65.2V32z M65.2,49.3v-5.3h10.1v5.3H65.2z M19.2,127.9H33v-15.3h15.3v-11.4H33v-6.3h14.8V40.8H33V35h14.8V23H33v-8.1H19.2V23H1v12h18.2v5.8H4.3v54.1h14.8v6.3H1v11.4h18.2V127.9z M31.2,52.2H36v10.1h-4.8V52.2z M31.2,72.3H36v11h-4.8V72.3z M16.3,52.2h4.8v10.1h-4.8V52.2z M16.3,83.4v-11h4.8v11H16.3z M56.9,147.4c-10.5,0-20.3-3.2-28.4-8.6l5.1-6l-14.7,0.1l2.2,14.6l5.2-6.1c8.8,5.9,19.3,9.4,30.7,9.4c29,0,52.8-22.2,55-50.7l-3.5-0.2C106.4,126.5,84.1,147.4,56.9,147.4z"/>
		</g>
		<path fill="#FFFFFF" d="M99.6,74.2H85.3V79H48.8v11h12.6l-9.3,6.3c4.2,4.4,7.5,8.5,9.7,12.4l10.6-8.1c-2.9-3.8-6.3-7.4-9.7-10.6h22.6v7.6c0,1.7-1,2.5-2.8,2.5c-0.7,0-3.7-0.1-8.7-0.5l2,12.5h13.9c6.6,0,10.1-3.6,10.1-10.6V90.1h13.9V79H99.6V74.2z M63.9,63.2c-2,0-6.6-0.1-14.1-0.5l1.5,11.5c16.2-0.1,32.9-0.7,50.1-1.8c0.9,1.6,1.7,3.3,2.6,5.2l10.1-6.6c-2.8-4.7-6.1-9.1-9.8-13h6V21.5H87.7v-4.8h24.4V4.8H87.7V0H74.2v4.8H49.8v11.9h24.4v4.8H52.2v36.4h22.1v5.3H63.9z M87.7,31h10.4v5.3H87.7V31z M87.7,43.1h10.4v5.3H87.7V43.1z M87.7,57.9h4c1.2,1.7,2.6,3.4,3.9,5.3h-8V57.9z M64.2,31h10.1v5.3H64.2V31z M64.2,48.3v-5.3h10.1v5.3H64.2z M18.2,126.9H32v-15.3h15.3v-11.4H32v-6.3h14.8V39.8H32V34h14.8V22H32v-8.1H18.2V22H0v12h18.2v5.8H3.3v54.1h14.8v6.3H0v11.4h18.2V126.9z M30.2,51.2H35v10.1h-4.8V51.2z M30.2,71.3H35v11h-4.8V71.3z M15.3,51.2h4.8v10.1h-4.8V51.2z M15.3,82.4v-11h4.8v11H15.3z M55.9,146.4c-10.5,0-20.3-3.2-28.4-8.6l5.1-6l-14.7,0.1l2.2,14.6l5.2-6.1c8.8,5.9,19.3,9.4,30.7,9.4c29,0,52.8-22.2,55-50.7l-3.5-0.2C105.4,125.5,83.1,146.4,55.9,146.4z"/>
	</symbol>
	<symbol id="bg-film" viewBox="0 0 380 92">
		<path fill="url(#SVGID_1_)" d="M0,0v91.2h380V0H0z M21.2,86H9.7v-6.5h11.6V86z M21.2,12.9H9.7V6.5h11.6V12.9z M36.7,86H25.1v-6.5h11.6V86z M36.7,12.9H25.1V6.5h11.6V12.9z M52.1,86H40.6v-6.5h11.6V86z M52.1,12.9H40.6V6.5h11.6V12.9z M67.6,86H56v-6.5h11.6V86z M67.6,12.9H56V6.5h11.6V12.9z M83,86H71.4v-6.5H83V86z M83,12.9H71.4V6.5H83V12.9z M98.5,86H86.9v-6.5h11.6V86z M98.5,12.9H86.9V6.5h11.6V12.9z M113.9,86h-11.6v-6.5h11.6V86z M113.9,12.9h-11.6V6.5h11.6V12.9z M129.4,86h-11.6v-6.5h11.6V86z M129.4,12.9h-11.6V6.5h11.6V12.9z M144,86h-11.6v-6.5H144V86z M144,12.9h-11.6V6.5H144V12.9z M159.5,86h-11.6v-6.5h11.6V86z M159.5,12.9h-11.6V6.5h11.6V12.9z M174.9,86h-11.6v-6.5h11.6V86z M174.9,12.9h-11.6V6.5h11.6V12.9z M190.4,86h-11.6v-6.5h11.6V86z M190.4,12.9h-11.6V6.5h11.6V12.9z M205.8,86h-11.6v-6.5h11.6V86z M205.8,12.9h-11.6V6.5h11.6V12.9z M221.3,86h-11.6v-6.5h11.6V86z M221.3,12.9h-11.6V6.5h11.6V12.9z M236.7,86h-11.6v-6.5h11.6V86z M236.7,12.9h-11.6V6.5h11.6V12.9z M252.2,86h-11.6v-6.5h11.6V86z M252.2,12.9h-11.6V6.5h11.6V12.9z M267.6,86H256v-6.5h11.6V86z M267.6,12.9H256V6.5h11.6V12.9z M283.1,86h-11.6v-6.5h11.6V86z M283.1,12.9h-11.6V6.5h11.6V12.9z M298.5,86h-11.6v-6.5h11.6V86z M298.5,12.9h-11.6V6.5h11.6V12.9z M314,86h-11.6v-6.5H314V86z M314,12.9h-11.6V6.5H314V12.9z M329.4,86h-11.6v-6.5h11.6V86z M329.4,12.9h-11.6V6.5h11.6V12.9z M344.9,86h-11.6v-6.5h11.6V86z M344.9,12.9h-11.6V6.5h11.6V12.9z M360.3,86h-11.6v-6.5h11.6V86z M360.3,12.9h-11.6V6.5h11.6V12.9z M375.8,86h-11.6v-6.5h11.6V86z M375.8,12.9h-11.6V6.5h11.6V12.9z"/>
	</symbol>
	<symbol id="border-ticket" viewBox="0 0 160 5">
		<path fill="#fff7e5" d="M160,5c-3.1,0-5.5-2-6.2-5h-3.1c0,1-0.7,1.6-1.6,1.6c-0.9,0-1.6-0.6-1.6-1.6H146c0,1-0.7,1.6-1.6,1.6c-0.9,0-1.6-0.6-1.6-1.6h-1.3c0,1-0.7,1.6-1.6,1.6S138.2,1,138.2,0h-1.3c0,1-0.7,1.6-1.6,1.6c-0.9,0-1.6-0.6-1.6-1.6h-1.3c0,1-0.7,1.6-1.6,1.6C129.7,1.6,129,1,129,0h-1.3c0,1-0.7,1.6-1.6,1.6c-0.9,0-1.6-0.6-1.6-1.6h-1.3c0,1-0.7,1.6-1.6,1.6c-0.9,0-1.6-0.6-1.6-1.6h-1.3c0,1-0.7,1.6-1.6,1.6c-0.9,0-1.6-0.6-1.6-1.6h-1.5c0,1-0.7,1.6-1.6,1.6c-0.9,0-1.6-0.6-1.6-1.6h-1.5c0,1-0.7,1.6-1.6,1.6c-0.9,0-1.6-0.6-1.6-1.6h-1.5c0,1-0.7,1.6-1.6,1.6c-0.9,0-1.6-0.6-1.6-1.6h-1.5c0,1-0.7,1.6-1.6,1.6C96.8,1.6,96,1,96,0h-1.5c0,1-0.7,1.6-1.6,1.6C92,1.6,91.2,1,91.2,0h-1.5c0,1-0.7,1.6-1.6,1.6S86.4,1,86.4,0h-1.5c0,1-0.7,1.6-1.6,1.6c-0.9,0-1.6-0.6-1.6-1.6h-1.5c0,1-0.7,1.6-1.6,1.6c-0.9,0-1.6-0.6-1.6-1.6h-1.5c0,1-0.7,1.6-1.6,1.6c-0.9,0-1.6-0.6-1.6-1.6h-1.5c0,1-0.7,1.6-1.6,1.6C68,1.6,67.3,1,67.3,0h-1.5c0,1-0.7,1.6-1.6,1.6c-0.9,0-1.6-0.6-1.6-1.6H61c0,1-0.7,1.6-1.6,1.6S57.7,1,57.7,0h-1.5c0,1-0.7,1.6-1.6,1.6c-0.9,0-1.6-0.6-1.6-1.6h-1.5c0,1-0.7,1.6-1.6,1.6c-0.9,0-1.6-0.6-1.6-1.6h-1.5c0,1-0.7,1.6-1.6,1.6c-0.9,0-1.6-0.6-1.6-1.6h-1.5c0,1-0.7,1.6-1.6,1.6c-0.9,0-1.6-0.6-1.6-1.6h-1.5c0,1-0.7,1.6-1.6,1.6c-0.9,0-1.6-0.6-1.6-1.6h-1.5c0,1-0.7,1.6-1.6,1.6C29.7,1.6,29,1,29,0h-1.5c0,1-0.7,1.6-1.6,1.6S24.2,1,24.2,0h-1.5c0,1-0.7,1.6-1.6,1.6c-0.9,0-1.6-0.6-1.6-1.6h-1.5c0,1-0.7,1.6-1.6,1.6c-0.9,0-1.6-0.6-1.6-1.6h-1.5c0,1-0.7,1.6-1.6,1.6C10.6,1.6,9.8,1,9.8,0H6.5C5.8,3,3.3,5,0,5H160C160,5,160,5,160,5z"/>
	</symbol>
	<symbol id="pentagon" viewBox="0 0 13 53">
		<path d="M13,52.9c-0.5,0-1-0.2-1.4-0.6c-0.2,0-0.3-0.2-0.4-0.5L0.2,27.7c-0.3-0.7-0.3-1.7,0-2.4L11.2,1c0.1-0.3,0.3-0.4,0.4-0.5C12,0.2,12.5,0,13,0V52.9z"/>
	</symbol>
	<symbol id="pc" viewBox="0 0 48 40">
		<path fill="#B7C9CB" d="M18.4,32.7c-0.5,2.1-1,4.1-1.5,6.2c4.7,0,9.5,0,14.2,0c-0.5-2.1-1-4.1-1.5-6.2C25.9,32.7,22.1,32.7,18.4,32.7z"/>
		<path fill="#E8E8E8" d="M32,38.8H16c-0.4,0-0.7,0.4-0.7,0.9V40h17.4v-0.3C32.7,39.2,32.4,38.8,32,38.8z"/>
		<path fill="#E8E8E8" d="M0,30.2v3.4c0,0.7,0.5,1.2,1.2,1.2h45.6c0.7,0,1.2-0.5,1.2-1.2v-3.4H0z"/>
		<path fill="#30363D" d="M48,30.2v-29C48,0.5,47.5,0,46.8,0H1.2C0.5,0,0,0.5,0,1.2v29H48z"/>
	</symbol>
	<symbol id="mobile" viewBox="0 0 18 36">
		<path fill="#30363D" d="M15.3,0H2.7C1.2,0,0,1.2,0,2.7v29.9c0,1.5,1.2,2.7,2.7,2.7h12.5c1.5,0,2.7-1.2,2.7-2.7V2.7C18,1.2,16.8,0,15.3,0z"/>
		<path fill="#FFFFFF" d="M6.6,2.1h4.7c0.1,0,0.2,0.1,0.2,0.2s-0.1,0.2-0.2,0.2H6.6c-0.1,0-0.2-0.1-0.2-0.2S6.5,2.1,6.6,2.1z"/>
		<circle fill="#FFFFFF" cx="9" cy="31.8" r="1.6"/>
		<rect x="1.2" y="5.4" fill="#636363" width="15.6" height="23.1"/>
	</symbol>
	<symbol id="countdown" viewBox="0 0 90 68">
		<path fill="#5A5E5F" d="M0,0v68h90V0H0z M13,64H4v-6h9V64z M13,53.4H4v-6h9V53.4z M13,42.8H4v-6h9V42.8z M13,32.2H4v-6h9V32.2z M13,21.6H4v-6h9V21.6z M13,11H4V5h9V11z M86,64h-9v-6h9V64z M86,53.4h-9v-6h9V53.4z M86,42.8h-9v-6h9V42.8z M86,32.2h-9v-6h9V32.2z M86,21.6h-9v-6h9V21.6z M86,11h-9V5h9V11z"/>
		<path fill="#ECECEC" d="M21,5h48c2.8,0,5,2.2,5,5v49c0,2.8-2.2,5-5,5H21c-2.8,0-5-2.2-5-5V10C16,7.2,18.2,5,21,5z"/>
		<path fill="none" stroke="#5A5E5F" stroke-miterlimit="10" d="M45,12.2c12,0,21.8,9.7,21.8,21.8c0,12-9.7,21.8-21.8,21.8C33,55.8,23.2,46,23.2,34C23.2,22,33,12.2,45,12.2z"/>
		<path fill="#5A5E5F" d="M16,35v-1h58v1H16z"/>
		<path fill="#5A5E5F" d="M45,64V5h1v59H45z"/>
		<path fill="none" stroke="#5A5E5F" stroke-miterlimit="10" d="M45,15c10.5,0,19,8.5,19,19c0,10.5-8.5,19-19,19c-10.5,0-19-8.5-19-19C26,23.5,34.5,15,45,15z"/>
	</symbol>
	<symbol id="device-m" viewBox="0 0 35 57">
		<path fill="#464239" d="M10.7,7.7h3v-1h-3V7.7z M15.7,7.7h3v-1h-3V7.7z M20.7,7.7h3v-1h-3V7.7z M25.7,7.7h2v2h1v-3h-3V7.7z M10.7,44.9h3v-1h-3V44.9z M15.7,44.9h3v-1h-3V44.9z M20.7,44.9h3v-1h-3V44.9z M5.6,9.7h1v-2h2v-1h-3V9.7z M6.7,11.7h-1v3h1V11.7z M6.7,16.7h-1v3h1V16.7z M6.7,21.7h-1v3h1V21.7z M6.7,26.8h-1v3h1V26.8z M6.7,31.8h-1v3h1V31.8z M6.7,36.8h-1v3h1V36.8z M6.7,41.8h-1v3h3v-1h-2V41.8z M27.8,14.7h1v-3h-1V14.7z M27.8,19.7h1v-3h-1V19.7z M27.8,24.8h1v-3h-1V24.8z M27.8,29.8h1v-3h-1V29.8z M27.8,34.8h1v-3h-1V34.8z M27.8,39.8h1v-3h-1V39.8z M27.8,43.9h-2v1h3v-3h-1V43.9z M31.1,0H3.9C1.8,0,0,1.8,0,3.9v49c0,2.2,1.8,3.9,3.9,3.9h27.1c2.2,0,3.9-1.8,3.9-3.9v-49C35,1.8,33.2,0,31.1,0z M17.5,54.8c-1.5,0-2.8-1.2-2.8-2.8c0-1.5,1.3-2.8,2.8-2.8c1.5,0,2.8,1.2,2.8,2.8C20.3,53.6,19,54.8,17.5,54.8z M32,45.2c0,1.6-1.3,2.9-2.9,2.9H6c-1.6,0-2.9-1.3-2.9-2.9V6.4C3,4.8,4.3,3.5,6,3.5H29c1.6,0,2.9,1.3,2.9,2.9V45.2z"/>
	</symbol>
	<symbol id="device-d" viewBox="0 0 70 47">
		<path fill-rule="evenodd" clip-rule="evenodd" fill="#464239" d="M69.8,42.1l-0.9-0.7c-0.2-0.2-0.4-0.4-0.7-0.5l-6-4.8V3.4c0-1.9-1.5-3.4-3.4-3.4H11C9.1,0,7.6,1.5,7.6,3.4V36l-6,4.8c-0.2,0.2-0.5,0.3-0.7,0.5L0,42.1h0.3C0.1,42.5,0,42.9,0,43.3v0.4C0,45.5,1.5,47,3.4,47h63c1.9,0,3.4-1.5,3.4-3.4v-0.4c0-0.4-0.1-0.8-0.3-1.1H69.8z M47.6,45.5H22.2v-2.8h25.5V45.5z M58.9,34.1H10.8V4h48.1V34.1z M54.2,10.5h1.1v-3h-3.2v1h2.2V10.5z M54.2,15.5h1.1v-3h-1.1V15.5z M54.2,20.5h1.1v-3h-1.1V20.5z M54.2,25.5h1.1v-3h-1.1V25.5z M15.3,8.5h2.2v-1h-3.2v3h1.1V8.5z M15.3,12.5h-1.1v3h1.1V12.5z M15.3,17.5h-1.1v3h1.1V17.5z M15.3,22.5h-1.1v3h1.1V22.5z M49.9,7.5h-3.2v1h3.2V7.5z M44.5,7.5h-3.2v1h3.2V7.5z M39.1,7.5h-3.2v1h3.2V7.5z M33.7,7.5h-3.2v1h3.2V7.5z M28.3,7.5H25v1h3.2V7.5z M22.9,7.5h-3.2v1h3.2V7.5z M55.3,27.5h-1.1v2h-2.2v1h3.2V27.5z M49.9,29.5h-3.2v1h3.2V29.5z M44.5,29.5h-3.2v1h3.2V29.5z M39.1,29.5h-3.2v1h3.2V29.5z M33.7,29.5h-3.2v1h3.2V29.5z M28.3,29.5H25v1h3.2V29.5z M22.9,29.5h-3.2v1h3.2V29.5z M17.5,29.5h-2.2v-2h-1.1v3h3.2V29.5z"/>
	</symbol>
	<symbol id="device-shot" viewBox="0 0 76 61">
		<path fill="#464239" d="M68.8,3.2l-2.2,6.5l1.4,0.5l2.2-6.5L68.8,3.2z M69.5,14.7l6.5-2.2l-0.5-1.4L69,13.4L69.5,14.7z M68.2,19.5l5.1,2.9l0.7-1.3l-5.1-2.9L68.2,19.5z M62.3,8.4l-2-5.5l-1.4,0.5l2,5.5L62.3,8.4z M61.8,11.9H37.6c-1.9,0-3.5,1.5-3.5,3.5v42.1c0,1.9,1.6,3.5,3.5,3.5h24.1c1.9,0,3.5-1.5,3.5-3.5V15.3C65.2,13.4,63.7,11.9,61.8,11.9z M49.7,59.1c-1.4,0-2.5-1.1-2.5-2.5c0-1.4,1.1-2.5,2.5-2.5c1.4,0,2.5,1.1,2.5,2.5C52.2,58,51.1,59.1,49.7,59.1z M62.5,50.6c0,1.4-1.2,2.6-2.6,2.6H39.4c-1.4,0-2.6-1.1-2.6-2.6v-33c0-1.4,1.2-2.6,2.6-2.6H60c1.4,0,2.6,1.1,2.6,2.6V50.6z"/>
		<path fill="#464239" d="M31,40H20v-2h11v-8H10V4h43v5h2V3c0-1.6-0.9-3-2.6-3H9.8C8.1,0,7,1.3,7,3v29l-5.5,4.3c-0.2,0.1-0.5,0.1-0.7,0.2L0,37h0.3C0.1,38,0,38.1,0,38.5v0.3C0,40.4,1.3,42,3,42h28V40z"/>
	</symbol>
</svg> 